Coordinates
version=1
nRows=41
nColumns=38
inDegrees=no

Units are S.I. units (second, meters, Newtons, ...)
If the header above contains a line with 'inDegrees', this indicates whether rotational values are in degrees (yes) or radians (no).

endheader
time	pelvis_tilt	pelvis_list	pelvis_rotation	pelvis_tx	pelvis_ty	pelvis_tz	hip_flexion_r	hip_adduction_r	hip_rotation_r	knee_angle_r	ankle_angle_r	subtalar_angle_r	mtp_angle_r	hip_flexion_l	hip_adduction_l	hip_rotation_l	knee_angle_l	ankle_angle_l	subtalar_angle_l	mtp_angle_l	lumbar_extension	lumbar_bending	lumbar_rotation	arm_flex_r	arm_add_r	arm_rot_r	elbow_flex_r	pro_sup_r	wrist_flex_r	wrist_dev_r	arm_flex_l	arm_add_l	arm_rot_l	elbow_flex_l	pro_sup_l	wrist_flex_l	wrist_dev_l
1.53	-2.85193	1.30652	-1.84792	0.964568	1.05424	0.930586	0.175822	-0.253186	-0.0292297	1.51123	-0.0155744	0	0	0.0352294	0.0912476	-0.257307	0.431509	0.0454719	0	0	-0.287309	-0.126613	0.136915	0.294088	-0.424519	-0.103613	1.33079	1.5708	0	0	0.290164	-0.476204	-0.0143676	1.63996	1.09708	0	0
1.54	-2.86293	1.3035	-1.83172	0.965268	1.06471	0.933887	0.199991	-0.221348	-0.0319059	1.52004	-0.000267647	0	0	0.0108181	0.0905913	-0.251938	0.418168	0.049262	0	0	-0.291899	-0.126885	0.132358	0.295558	-0.422562	-0.0996603	1.32372	1.5708	0	0	0.291962	-0.476666	-0.0128325	1.63514	1.1008	0	0
1.55	-2.88677	1.30293	-1.80238	0.961739	1.07528	0.93586	0.221554	-0.237063	-0.024984	1.50182	0.0321769	0	0	-0.0127469	0.0886214	-0.246288	0.402672	0.0536772	0	0	-0.294408	-0.115584	0.127614	0.297292	-0.423707	-0.100915	1.3176	1.5708	0	0	0.295307	-0.474705	-0.00674592	1.63006	1.10263	0	0
1.56	-2.90293	1.3028	-1.77972	0.960242	1.08575	0.938251	0.24291	-0.229802	-0.0269227	1.48727	0.0476998	0	0	-0.0347508	0.086806	-0.240101	0.387982	0.056876	0	0	-0.296437	-0.109519	0.122904	0.297372	-0.424031	-0.10046	1.31309	1.5708	0	0	0.298037	-0.473355	-0.00652699	1.6287	1.09657	0	0
1.57	-2.91769	1.30263	-1.7579	0.958708	1.09619	0.940615	0.261822	-0.223691	-0.031296	1.46664	0.0613665	0	0	-0.0574209	0.0852726	-0.233149	0.371752	0.0589732	0	0	-0.298693	-0.103522	0.118378	0.296587	-0.424635	-0.100967	1.31002	1.5708	0	0	0.301791	-0.472214	-0.00420531	1.62585	1.09229	0	0
1.58	-2.93059	1.30151	-1.73772	0.957075	1.10657	0.94302	0.277524	-0.219522	-0.0380852	1.44078	0.0771682	0	0	-0.0822455	0.0847298	-0.225459	0.352726	0.0600412	0	0	-0.302149	-0.0978141	0.114163	0.295363	-0.425582	-0.103265	1.30792	1.5708	0	0	0.306252	-0.471135	0.0015197	1.62214	1.08908	0	0
1.59	-2.94241	1.29981	-1.71807	0.955333	1.11693	0.945398	0.289935	-0.216783	-0.0474993	1.40971	0.0918302	0	0	-0.10864	0.0844643	-0.217373	0.331581	0.0602881	0	0	-0.306527	-0.0920229	0.109572	0.293574	-0.426714	-0.106362	1.30718	1.5708	0	0	0.311109	-0.469964	0.00743272	1.61877	1.08777	0	0
1.6	-2.95482	1.29834	-1.69723	0.953538	1.1271	0.947628	0.299984	-0.214615	-0.0595121	1.37327	0.105449	0	0	-0.134413	0.0833203	-0.20848	0.310945	0.0600255	0	0	-0.311289	-0.0855114	0.104154	0.291703	-0.428145	-0.109243	1.30771	1.5708	0	0	0.315899	-0.46905	0.0126287	1.61604	1.08754	0	0
1.61	-2.95611	1.29725	-1.68339	0.953558	1.1369	0.950163	0.308863	-0.190286	-0.0707773	1.34106	0.108002	0	0	-0.157614	0.080223	-0.201252	0.291787	0.0605566	0	0	-0.317104	-0.0846344	0.0956261	0.28885	-0.428734	-0.11059	1.30948	1.5708	0	0	0.321841	-0.469628	0.0168927	1.61375	1.0875	0	0
1.62	-2.97563	1.29625	-1.65982	0.950109	1.14719	0.951453	0.311974	-0.209374	-0.0750182	1.28502	0.134694	0	0	-0.184541	0.0806389	-0.186914	0.268818	0.0573549	0	0	-0.321053	-0.0727541	0.0926417	0.287677	-0.431609	-0.115468	1.31337	1.5708	0	0	0.324653	-0.468071	0.0208661	1.61301	1.0849	0	0
1.63	-2.98495	1.29552	-1.64215	0.94844	1.15737	0.95302	0.315293	-0.208993	-0.0914095	1.2357	0.146192	0	0	-0.209512	0.079022	-0.176146	0.247228	0.0560605	0	0	-0.32527	-0.0661012	0.0860715	0.285999	-0.433701	-0.117631	1.31716	1.5708	0	0	0.327348	-0.468157	0.0237482	1.61275	1.08324	0	0
1.64	-2.99179	1.29521	-1.62734	0.946786	1.16756	0.954312	0.316847	-0.208839	-0.109136	1.18318	0.155244	0	0	-0.233943	0.077685	-0.1659	0.22604	0.0540552	0	0	-0.328696	-0.0601739	0.0792898	0.284977	-0.435573	-0.119098	1.32086	1.5708	0	0	0.329095	-0.468729	0.0260608	1.61302	1.08169	0	0
1.65	-2.99679	1.29589	-1.61517	0.945149	1.17774	0.955217	0.317585	-0.208707	-0.127892	1.12717	0.164261	0	0	-0.257144	0.0766642	-0.156115	0.205335	0.0527825	0	0	-0.330818	-0.0546406	0.0725848	0.284936	-0.437339	-0.119852	1.32449	1.5708	0	0	0.329832	-0.469312	0.0274902	1.61378	1.08054	0	0
1.66	-3.00105	1.29732	-1.6045	0.943682	1.18793	0.955738	0.317059	-0.20789	-0.148248	1.06747	0.171369	0	0	-0.278939	0.0755329	-0.146645	0.18542	0.0532762	0	0	-0.331825	-0.0494365	0.0667628	0.284802	-0.438865	-0.12164	1.32835	1.5708	0	0	0.331204	-0.469778	0.02927	1.61377	1.07995	0	0
1.67	-3.01292	1.2945	-1.58684	0.941991	1.19721	0.956351	0.309823	-0.204312	-0.17146	1.00124	0.175708	0	0	-0.302434	0.0721774	-0.137241	0.16909	0.0554558	0	0	-0.327595	-0.0455214	0.0756637	0.276159	-0.445377	-0.133519	1.31804	1.5708	0	0	0.358111	-0.46091	0.0606018	1.5852	1.07919	0	0
1.68	-3.0157	1.29855	-1.57983	0.940949	1.20737	0.955968	0.308697	-0.201865	-0.193455	0.933736	0.177744	0	0	-0.317744	0.0706712	-0.131975	0.155971	0.0604914	0	0	-0.325452	-0.0412534	0.0703822	0.278011	-0.446397	-0.132553	1.32075	1.5708	0	0	0.357467	-0.460837	0.0589547	1.58654	1.07886	0	0
1.69	-3.02571	1.29769	-1.5608	0.939157	1.21791	0.955947	0.29811	-0.205901	-0.271955	0.854386	0.176079	0	0	-0.340298	0.0658862	-0.118342	0.139433	0.0628909	0	0	-0.328196	-0.0333654	0.0616179	0.279214	-0.446712	-0.135383	1.3248	1.5708	0	0	0.356817	-0.459493	0.0565596	1.58785	1.08256	0	0
1.7	-3.02766	1.30257	-1.55432	0.93828	1.22822	0.954829	0.292081	-0.202136	-0.305178	0.777083	0.171672	0	0	-0.352398	0.0636368	-0.112407	0.130625	0.0703606	0	0	-0.325163	-0.0298135	0.0567091	0.280472	-0.446437	-0.137537	1.32839	1.5708	0	0	0.35649	-0.458875	0.0541263	1.58962	1.08431	0	0
1.71	-3.02519	1.30977	-1.55231	0.937654	1.23838	0.953125	0.287733	-0.198064	-0.33955	0.69792	0.161044	0	0	-0.359458	0.0621089	-0.107053	0.126375	0.0810996	0	0	-0.319961	-0.0279444	0.0515222	0.2823	-0.445811	-0.138652	1.3315	1.5708	0	0	0.356376	-0.458603	0.0509887	1.59129	1.08623	0	0
1.72	-3.01838	1.31861	-1.55498	0.937481	1.24874	0.951031	0.283869	-0.192668	-0.373937	0.617162	0.14659	0	0	-0.363568	0.0610324	-0.103108	0.124852	0.0933786	0	0	-0.312356	-0.0278799	0.0455291	0.285206	-0.44343	-0.137893	1.33273	1.5708	0	0	0.355034	-0.460028	0.0469291	1.5925	1.08778	0	0
1.73	-3.00529	1.32974	-1.56423	0.937835	1.25932	0.948526	0.282283	-0.186296	-0.408616	0.536443	0.130975	0	0	-0.364105	0.0606471	-0.100429	0.12555	0.106075	0	0	-0.300599	-0.0296434	0.0355543	0.293032	-0.437343	-0.131166	1.32821	1.5708	0	0	0.348845	-0.464571	0.0381753	1.59416	1.08884	0	0
1.74	-2.99176	1.33926	-1.57663	0.938381	1.26994	0.945674	0.280327	-0.177408	-0.439148	0.45822	0.115455	0	0	-0.366367	0.0609962	-0.100203	0.12673	0.119946	0	0	-0.291423	-0.0331628	0.032694	0.295981	-0.434343	-0.130849	1.32871	1.5708	0	0	0.349175	-0.467376	0.036544	1.59544	1.08974	0	0
1.75	-2.96407	1.34868	-1.59522	0.939429	1.27993	0.942822	0.282253	-0.158784	-0.44304	0.390949	0.094028	0	0	-0.367629	0.0568712	-0.106578	0.12644	0.13668	0	0	-0.284298	-0.0408906	0.0263402	0.296004	-0.43249	-0.131115	1.3306	1.5708	0	0	0.355089	-0.469417	0.0383414	1.59586	1.09068	0	0
1.76	-2.94438	1.35753	-1.61639	0.940269	1.29069	0.939592	0.279857	-0.148542	-0.464025	0.318381	0.0787541	0	0	-0.370332	0.0581768	-0.109273	0.128559	0.150909	0	0	-0.275944	-0.0463886	0.0285975	0.296573	-0.430527	-0.136037	1.33305	1.5708	0	0	0.360119	-0.470627	0.0407014	1.59455	1.09387	0	0
1.77	-2.92286	1.36561	-1.64039	0.941232	1.30167	0.936311	0.27728	-0.137514	-0.480321	0.253285	0.0631727	0	0	-0.374373	0.0596936	-0.112078	0.130126	0.164635	0	0	-0.267783	-0.0521165	0.0323186	0.297169	-0.429608	-0.139489	1.33543	1.5708	0	0	0.365349	-0.471425	0.0449099	1.59172	1.09478	0	0
1.78	-2.90695	1.37234	-1.65961	0.942265	1.31292	0.93309	0.27195	-0.12376	-0.48687	0.192501	0.0464553	0	0	-0.380228	0.0599107	-0.11609	0.131988	0.178542	0	0	-0.260378	-0.0563955	0.0376184	0.297455	-0.429736	-0.142827	1.33796	1.5708	0	0	0.37073	-0.471462	0.049399	1.58916	1.09523	0	0
1.79	-2.89604	1.37788	-1.67433	0.943209	1.32456	0.929945	0.265797	-0.109833	-0.484293	0.143411	0.0321529	0	0	-0.388152	0.059376	-0.120679	0.133575	0.191842	0	0	-0.253198	-0.0591975	0.043855	0.29714	-0.431187	-0.145325	1.34019	1.5708	0	0	0.375124	-0.470232	0.0535642	1.58562	1.09597	0	0
1.8	-2.98106	1.38544	-1.60199	0.946112	1.33446	0.928115	0.234998	-0.0427177	-0.301609	0.0394835	0.523599	0	0	-0.387161	0.0391835	-0.145342	0.147866	0.211221	0	0	-0.250135	-0.0444611	0.0611215	0.302702	-0.433613	-0.147371	1.33763	1.5708	0	0	0.382284	-0.463278	0.0552609	1.57587	1.09944	0	0
1.81	-2.94458	1.38575	-1.63953	0.946347	1.34704	0.924095	0.232944	-0.0396602	-0.286965	0	0.0607511	0	0	-0.401429	0.0492463	-0.135076	0.151174	0.218576	0	0	-0.24397	-0.0517943	0.0623386	0.299931	-0.43462	-0.147742	1.34093	1.5708	0	0	0.383565	-0.466271	0.0613573	1.57594	1.09709	0	0
1.82	-2.94912	1.38522	-1.63318	0.946216	1.36021	0.921667	0.224549	-0.0333686	-0.284748	0	0.0490446	0	0	-0.415711	0.0451336	-0.135009	0.155225	0.229607	0	0	-0.24053	-0.0493263	0.0626958	0.298427	-0.442508	-0.134141	1.34368	1.57077	0	0	0.384139	-0.462336	0.0646305	1.57143	1.09598	0	0
1.83	-2.94584	1.38876	-1.63109	0.945672	1.3735	0.91935	0.209229	-0.0280713	-0.286364	0	0.0490261	0	0	-0.425879	0.0351576	-0.14426	0.159678	0.245485	0	0	-0.23258	-0.0471518	0.0599816	0.298747	-0.445218	-0.144854	1.34464	1.5708	0	0	0.379956	-0.458123	0.0641171	1.56918	1.09715	0	0
1.84	-2.96027	1.38765	-1.61179	0.945041	1.38647	0.917094	0.2098	-0.0253879	-0.296149	0.0303319	0.0546888	0	0	-0.436578	0.0268661	-0.145371	0.172396	0.257275	0	0	-0.2304	-0.0415508	0.05642	0.298434	-0.450154	-0.142791	1.34778	1.5708	0	0	0.376801	-0.453786	0.0634669	1.56817	1.09944	0	0
1.85	-2.97305	1.38578	-1.59193	0.944179	1.39962	0.914959	0.212713	-0.0264167	-0.319736	0.0848155	0.07315	0	0	-0.445894	0.0175315	-0.145587	0.188942	0.268168	0	0	-0.229231	-0.0358016	0.0500403	0.298897	-0.455464	-0.139224	1.35116	1.5708	0	0	0.372524	-0.449643	0.0610113	1.56815	1.10204	0	0
1.86	-2.98864	1.3838	-1.56688	0.943225	1.41291	0.913029	0.212028	-0.0272051	-0.343775	0.126936	0.0961441	0	0	-0.452715	0.00566016	-0.145305	0.210055	0.277976	0	0	-0.22842	-0.0293528	0.0412666	0.299578	-0.459863	-0.137779	1.35334	1.5708	0	0	0.367475	-0.446354	0.0586766	1.56864	1.10395	0	0
1.87	-3.02438	1.37649	-1.52242	0.94241	1.42593	0.91164	0.199318	-0.0196865	-0.357616	0.14116	0.096988	0	0	-0.462983	-0.0112492	-0.148956	0.234884	0.287261	0	0	-0.231739	-0.016125	0.0233932	0.317336	-0.462083	-0.117633	1.34385	1.5708	0	0	0.35181	-0.446242	0.0426502	1.57254	1.10466	0	0
1.88	-3.06999	1.37719	-1.4681	0.941987	1.43925	0.910508	0.189707	-0.00628178	-0.360792	0.131801	0.0615069	0	0	-0.459672	-0.0317099	-0.15442	0.267416	0.29384	0	0	-0.212222	-0.00770236	0.0261894	0.310065	-0.465753	-0.120284	1.31779	1.5708	0	0	0.362531	-0.433672	0.0646639	1.53782	1.10653	0	0
1.89	-3.11029	1.36818	-1.41972	0.942553	1.45194	0.909807	0.168349	0.00898777	-0.359193	0.116309	0.000788371	0	0	-0.459914	-0.0557389	-0.168008	0.311849	0.301229	0	0	-0.238636	0.00824189	0.00831924	0.322824	-0.467575	-0.110276	1.34646	1.5708	0	0	0.339111	-0.438382	0.0301237	1.57757	1.11422	0	0
1.9	-3.1392	1.36542	-1.38546	0.943088	1.46488	0.909136	0.16348	0.0154572	-0.370171	0.127823	-0.0356062	0	0	-0.451759	-0.0752851	-0.176262	0.357919	0.299137	0	0	-0.241529	0.0166755	0.00439286	0.32435	-0.468342	-0.115019	1.34935	1.5708	0	0	0.333243	-0.434362	0.0253834	1.58156	1.1156	0	0
1.91	3.10787	1.36627	-1.34546	0.943484	1.47812	0.908709	0.169078	0.0203309	-0.380878	0.15772	-0.0512079	0	0	-0.434244	-0.0965911	-0.186415	0.412956	0.290695	0	0	-0.222529	0.0213158	0.0125949	0.315009	-0.470474	-0.121258	1.32498	1.5708	0	0	0.344391	-0.421505	0.0483779	1.54965	1.11676	0	0
1.92	3.08262	1.36117	-1.31719	0.944118	1.49107	0.908792	0.173909	0.0217309	-0.392114	0.203253	-0.0410304	0	0	-0.418043	-0.118278	-0.195481	0.475784	0.27361	0	0	-0.227165	0.0290649	0.0117284	0.316338	-0.47263	-0.12305	1.32543	1.5708	0	0	0.339741	-0.41663	0.0456441	1.55183	1.11741	0	0
1.93	3.06612	1.35054	-1.29926	0.945153	1.50362	0.909343	0.175201	0.020986	-0.404045	0.256508	-0.0175221	0	0	-0.402072	-0.141132	-0.203112	0.546742	0.245367	0	0	-0.256279	0.0412439	0.000503485	0.33095	-0.474092	-0.116186	1.35343	1.5708	0	0	0.315678	-0.420173	0.0114638	1.59263	1.11883	0	0
